<svg xmlns="http://www.w3.org/2000/svg" viewBox="0 0 512 512">
  <defs>
    <linearGradient id="g" x1="0%" y1="0%" x2="100%" y2="100%">
      <stop offset="0%" stop-color="#10b981"/>
      <stop offset="100%" stop-color="#059669"/>
    </linearGradient>
  </defs>
  <rect width="512" height="512" rx="96" fill="url(#g)"/>
  <!-- Calendario -->
  <rect x="112" y="144" width="288" height="256" rx="24" fill="#fff"/>
  <rect x="112" y="144" width="288" height="56" rx="24" fill="#065f46"/>
  <rect x="112" y="176" width="288" height="24" fill="#065f46"/>
  <rect x="160" y="120" width="20" height="56" rx="6" fill="#065f46"/>
  <rect x="332" y="120" width="20" height="56" rx="6" fill="#065f46"/>
  <!-- Hoja verde central -->
  <path d="M256 230 C200 260 200 340 256 370 C312 340 312 260 256 230 Z" fill="#10b981"/>
  <path d="M256 230 L256 370" stroke="#065f46" stroke-width="6" stroke-linecap="round"/>
  <path d="M256 280 L230 305 M256 295 L282 320 M256 315 L232 340" stroke="#065f46" stroke-width="4" stroke-linecap="round" fill="none"/>
  <!-- Tenedor -->
  <path d="M180 260 L180 330 M172 260 L172 290 Q172 298 180 298 L180 260 M188 260 L188 290 Q188 298 180 298" stroke="#065f46" stroke-width="6" stroke-linecap="round" fill="none"/>
</svg>
